<?xml version="1.0" encoding="utf-8"?>
<!-- Generator: Adobe Illustrator 18.1.0, SVG Export Plug-In . SVG Version: 6.00 Build 0)  -->
<!DOCTYPE svg PUBLIC "-//W3C//DTD SVG 1.1//EN" "http://www.w3.org/Graphics/SVG/1.1/DTD/svg11.dtd">
<svg version="1.1" id="Layer_1" xmlns="http://www.w3.org/2000/svg" xmlns:xlink="http://www.w3.org/1999/xlink" x="0px" y="0px"
	 viewBox="0 0 106.3 56.2" enable-background="new 0 0 106.3 56.2" xml:space="preserve">
<path fill="#DEC6AD" d="M56.4,3.7c2,3.8,1.1,8.9-1.8,12c-0.4,0.3-0.4,0.6-0.7,0.8c2.3,2.8,5.2,5,8.1,6.3c7.8-4.2,16.6-13.3,26-6.3
	c2.3,1.8,3.6,4.3,4.5,6.7c3.9,0.1,7.8,0.4,11.1,2.2c1.2,0.9,1.5,2.2,1.1,3.6c-0.3,0.5-0.6,1.1-1.1,1.2c-1,1.4-2.6,1.9-4.1,2.3
	c-2.5,0.3-4.8,1.2-7.6,0.8c-1,2-2.3,4.3-4.4,5.5c-3.1,3.2-8.5,3.6-12.6,2.1c-4.7-1.9-8.8-5-13.2-7.6c-2.8,1.4-5.4,3.4-7.7,5.8
	c3.1,3.2,4.6,8,2.8,12.3c-0.9,2.5-2.7,2.8-3.7,3c-1.2,0-2.4-0.7-3-1.8c-2.1-4.3-0.4-9.4,2.6-12.7c-2.3-2.6-5-4.7-7.8-6.2h-0.3
	c-7.6,3.9-15.7,11.9-25,6.5c-2.6-1.6-4.5-4.3-5.5-6.9c-3.9,0.1-7.4-0.6-10.6-2c-0.8-0.5-1.4-1.4-1.6-2.2c-0.5-1.9,1.4-2.7,2.4-4
	c3-1.4,6.3-2,9.9-2c1-2.2,2.4-4.6,4.7-6c3.4-3.5,9.6-3.8,14-2c4.6,2,8.8,4.8,13.1,7.4c2.4-1.3,4.8-3,6.7-5.3
	c-3-3.2-4.6-7.9-2.8-12.2c0.7-1.5,1.9-2.7,3.5-3.1C54.6,2.1,55.7,2.6,56.4,3.7z M52.7,3.2c-0.9,0.3-1.6,0.7-1.9,1.6
	c-1.8,4.1,0.1,8.4,2.8,11.4c2.5-2.9,3.6-7.4,1.9-11C55.1,4,53.9,3.2,52.7,3.2z M86,16.9c-8.8-5.8-16.7,2.6-23.7,6.2
	c3.2,1.8,6.5,3.2,9.8,4.6c5.1-1.9,10.3-3.5,15.8-4.3c0.9-0.1,2-0.1,2.8-0.4l-1.2-2.3C88.8,19.2,87.4,18,86,16.9z M23.3,15.5
	c-3.8,0.6-6.8,4.2-8,7.7c7.1,0.4,13.6,2.2,19.9,4.6c3.1-1.4,6.4-2.6,9.3-4.3C37.8,20,31.8,13.7,23.3,15.5z M52.9,17.7
	c-1.9,1.9-3.9,4.1-6.2,5.3c2.6,1.5,5.1,3,7.7,4.4l5.9-3.7C57.6,22.2,55.1,20.1,52.9,17.7z M53,28.4l-7.9-4.5
	c-2.9,1.6-5.8,3.2-8.9,4.3c3.3,1.2,6.5,2.8,9.6,4.4L53,28.4z M60.9,24l-6.1,3.8l7.6,4.5c2.6-1.3,5.4-2.8,7.9-3.8
	C67.1,27.2,63.9,25.8,60.9,24z M14.9,24.3c-0.8,2.6-0.4,5.7,0.4,8.1c6.4-0.2,12.4-2,17.9-3.9C27.4,26.4,21.4,24.5,14.9,24.3z
	 M73.4,28.2c5.7,2,11.5,3.8,17.8,4.2c0.8-2.4,0.8-5.7,0-8.1C84.9,24.7,79.1,26.3,73.4,28.2z M92.7,24.3c0.5,2.6,0.5,5.7-0.4,8.1
	c2.3,0.2,4.6-0.3,6.9-0.6c1.6-0.4,3.6-0.7,4.5-2.2c0.3-1,0-2-0.7-2.7C100,24.7,96.3,24.6,92.7,24.3z M53.5,28.7L46.3,33
	c2.7,1.5,5.1,3.7,7.3,6c2.1-2.3,4.6-4.3,7.2-5.9L53.5,28.7z M34.4,28.9c-5.9,2.3-12.1,4-18.7,4.6c1,2,2.3,4,4.3,5.3
	c8.5,6,17.3-1.5,24.2-5.3C41.1,31.8,37.8,30.3,34.4,28.9z M71.4,28.9c-2.8,1.1-5.7,2.4-8.3,3.9C69.4,36.2,75,42,83,40.7
	c3.6-0.6,6.8-3.7,7.8-7.1C83.8,33.3,77.6,31.1,71.4,28.9z M52.9,40.6c-0.7,1.2-1.6,2.3-2.1,3.6c-1.1,2.7-0.8,6.3,0.9,8.5
	c0.6,0.5,1.4,0.8,2.2,0.8c0.8-0.3,1.4-0.5,1.8-1.5C57.4,47.9,55.9,43.5,52.9,40.6z M7.1,25c-1.5,0.4-3.3,0.8-4.1,2.1
	c-0.4,1.1,0.1,2.1,0.8,2.8c2.8,2,6.4,2.1,9.9,2.4c-0.8-2.4-0.8-5.7,0-8.1C11.3,24,9.3,24.8,7.1,25z"/>
</svg>
