<?xml version="1.0" encoding="UTF-8"?>
<!-- Generator: Adobe Illustrator 16.2.1, SVG Export Plug-In . SVG Version: 6.00 Build 0)  -->
<!DOCTYPE svg PUBLIC "-//W3C//DTD SVG 1.0//EN" "http://www.w3.org/TR/2001/REC-SVG-20010904/DTD/svg10.dtd">
<svg version="1.0" id="Layer_1" xmlns="http://www.w3.org/2000/svg" xmlns:xlink="http://www.w3.org/1999/xlink" x="0px" y="0px" width="25px" height="25px" viewBox="0 0 25 25" enable-background="new 0 0 25 25" xml:space="preserve">
<g>
	<path fill="none" stroke="#454545" stroke-width="1.3333" stroke-linecap="round" stroke-miterlimit="10" d="M23.469,13.667   c0,1.105-0.895,2-2,2H3.532c-1.104,0-2-0.895-2-2v-1.864c0-1.105,0.896-2,2-2h17.937c1.105,0,2,0.895,2,2V13.667z"/>
	<path fill="none" stroke="#454545" stroke-width="1.3333" stroke-linecap="round" stroke-miterlimit="10" d="M21.52,15.667v3.695   c0,1.104-0.895,2-2,2H5.606c-1.104,0-2-0.896-2-2v-3.695"/>
	<g>
		<path fill="none" stroke="#454545" stroke-width="1.3333" stroke-linecap="round" stroke-miterlimit="10" d="M12.5,13.364    l-0.127-3.793h3.921c2.094,0,3.793,1.698,3.793,3.793"/>
		<path fill="none" stroke="#454545" stroke-width="1.3333" stroke-linecap="round" stroke-miterlimit="10" d="M4.85,13.429    c0-2.096,1.699-3.794,3.794-3.794l3.793-0.127l0.063,12.15"/>
		<path fill="none" stroke="#454545" stroke-width="1.3333" stroke-linecap="round" stroke-miterlimit="10" d="M12.485,6.467    c0-1.726,1.399-3.125,3.126-3.125s3.127,1.399,3.127,3.125c0,1.727-1.4,3.125-3.127,3.125l-3.126,0.105V6.467z"/>
		<path fill="none" stroke="#454545" stroke-width="1.3333" stroke-linecap="round" stroke-miterlimit="10" d="M9.309,9.645    c-1.726,0-3.125-1.4-3.125-3.125c0-1.727,1.399-3.126,3.125-3.126c1.727,0,3.125,1.399,3.125,3.126l0.104,3.125H9.309z"/>
	</g>
</g>
</svg>