<?xml version="1.0" encoding="UTF-8"?>
<!-- Generator: Adobe Illustrator 16.2.1, SVG Export Plug-In . SVG Version: 6.00 Build 0)  -->
<!DOCTYPE svg PUBLIC "-//W3C//DTD SVG 1.0//EN" "http://www.w3.org/TR/2001/REC-SVG-20010904/DTD/svg10.dtd">
<svg version="1.0" id="Layer_1" xmlns="http://www.w3.org/2000/svg" xmlns:xlink="http://www.w3.org/1999/xlink" x="0px" y="0px" width="25px" height="25px" viewBox="0 0 25 25" enable-background="new 0 0 25 25" xml:space="preserve">
<g>
	<path fill="none" stroke="#454545" stroke-width="1.3333" stroke-linecap="round" stroke-miterlimit="10" d="M19.842,20.5   c0,1.105-0.895,2-2,2H5.508c-1.104,0-2-0.895-2-2v-16c0-1.104,0.896-2,2-2h12.333c1.105,0,2,0.896,2,2V20.5z"/>
	<path fill="none" stroke="#454545" stroke-width="1.3333" stroke-linecap="round" stroke-miterlimit="10" d="M7.159,2.5h12.333   c1.104,0,2,0.896,2,2v16c0,1.105-0.896,2-2,2H7.159"/>
	<polygon fill="none" stroke="#454545" stroke-width="1.3333" stroke-linecap="round" stroke-miterlimit="10" points="10.056,2.5    6.311,2.5 6.311,12.098 8.183,11.098 10.056,12.098  "/>
	
		<circle fill="none" stroke="#454545" stroke-width="1.3333" stroke-linecap="round" stroke-miterlimit="10" cx="11.372" cy="17.74" r="3.189"/>
	
		<circle fill="none" stroke="#454545" stroke-width="1.3333" stroke-linecap="round" stroke-miterlimit="10" cx="14.561" cy="15.172" r="3.189"/>
</g>
</svg>