<?xml version="1.0" encoding="UTF-8"?>
<!-- Generator: Adobe Illustrator 16.2.1, SVG Export Plug-In . SVG Version: 6.00 Build 0)  -->
<!DOCTYPE svg PUBLIC "-//W3C//DTD SVG 1.0//EN" "http://www.w3.org/TR/2001/REC-SVG-20010904/DTD/svg10.dtd">
<svg version="1.0" id="Layer_1" xmlns="http://www.w3.org/2000/svg" xmlns:xlink="http://www.w3.org/1999/xlink" x="0px" y="0px" width="25px" height="25px" viewBox="0 0 25 25" enable-background="new 0 0 25 25" xml:space="preserve">
<g>
	<polygon fill="#454545" points="10.234,19.941 6.337,16.604 5.155,18.117 8.898,21.514  "/>
	<polygon fill="none" stroke="#454545" stroke-width="1.3333" stroke-miterlimit="10" points="11.792,17.166 8.814,14.654    7.893,15.709 10.845,18.172  "/>
	<path fill="none" stroke="#454545" stroke-width="1.3333" stroke-miterlimit="10" d="M10.857,7.045c0,0-1.646,1.469-1.992,5.047   c-0.231,2.395-3.975,0.002-6.217,2.654c-2.06,2.434-0.923,5.535,2.688,7.682c3.714,2.211,6.946,2.041,8.484,0.08   c1.606-2.049-0.48-4.006,0.553-5.721c0.863-1.434,4.33-1.186,3.822-3.332c-0.508-2.146-3.682-1.355-5.191-2.205   C11.345,10.317,11.027,8.981,10.857,7.045z"/>
	<polyline fill="none" stroke="#454545" stroke-width="1.3333" stroke-miterlimit="10" points="21.844,3.277 7.783,19.969    6.805,18.98 20.066,3.229  "/>
	<path fill="none" stroke="#454545" stroke-width="1.3333" stroke-miterlimit="10" d="M19.557,4.905c0,0-1.512-0.677-0.754-1.615   c0.756-0.938,1.371-2.322,1.371-2.322l2.109,0.389l1.09,1.734c0,0-1.627,1.916-2.15,2.346C20.7,5.867,19.975,5.155,19.557,4.905z"/>
</g>
</svg>