<?xml version="1.0" encoding="utf-8"?>
<!-- Generator: Adobe Illustrator 16.2.1, SVG Export Plug-In . SVG Version: 6.00 Build 0)  -->
<!DOCTYPE svg PUBLIC "-//W3C//DTD SVG 1.0//EN" "http://www.w3.org/TR/2001/REC-SVG-20010904/DTD/svg10.dtd">
<svg version="1.0" id="Layer_1" xmlns="http://www.w3.org/2000/svg" xmlns:xlink="http://www.w3.org/1999/xlink" x="0px" y="0px"
	 width="25px" height="25px" viewBox="0 0 25 25" enable-background="new 0 0 25 25" xml:space="preserve">
<g>
	<path fill="none" stroke="#454545" stroke-width="1.3333" stroke-miterlimit="10" d="M23.346,21.626c0,1.104-0.895,2-2,2H3.654
		c-1.104,0-2-0.896-2-2v-6.485c0-1.104,0.896-2,2-2h17.691c1.104,0,2,0.896,2,2V21.626L23.346,21.626z"/>
	<path fill="none" stroke="#454545" stroke-width="1.3333" stroke-miterlimit="10" d="M5.716,13.038V8.886c0-1.104,0.896-2,2-2
		h9.567c1.105,0,2,0.896,2,2v4.152"/>
	<path fill="#454545" stroke="#454545" stroke-width="1.3333" stroke-miterlimit="10" d="M10.377,7.126V4.504
		c0-0.425,0.345-0.769,0.77-0.769l0,0c0.424,0,0.769,0.344,0.769,0.769v2.622"/>
	<circle fill="#454545" stroke="#454545" stroke-width="1.3333" stroke-miterlimit="10" cx="11.146" cy="2.201" r="0.827"/>
	<path fill="#454545" stroke="#454545" stroke-width="1.3333" stroke-miterlimit="10" d="M13.086,7.126V5.504
		c0-0.425,0.344-0.769,0.77-0.769l0,0c0.424,0,0.769,0.344,0.769,0.769v1.622"/>
	<circle fill="#454545" stroke="#454545" stroke-width="1.3333" stroke-miterlimit="10" cx="13.854" cy="3.201" r="0.827"/>
</g>
</svg>
