<?xml version="1.0" encoding="UTF-8"?>
<!-- Generator: Adobe Illustrator 16.2.1, SVG Export Plug-In . SVG Version: 6.00 Build 0)  -->
<!DOCTYPE svg PUBLIC "-//W3C//DTD SVG 1.0//EN" "http://www.w3.org/TR/2001/REC-SVG-20010904/DTD/svg10.dtd">
<svg version="1.0" id="Layer_1" xmlns="http://www.w3.org/2000/svg" xmlns:xlink="http://www.w3.org/1999/xlink" x="0px" y="0px" width="25px" height="25px" viewBox="0 0 25 25" enable-background="new 0 0 25 25" xml:space="preserve">
<g>
	<path fill="none" stroke="#454545" stroke-width="1.3333" stroke-linecap="round" stroke-miterlimit="10" d="M14.36,12.429   c1.039,1.039,1.039,2.723,0,3.762s-2.724,1.039-3.763,0s-1.039-2.723,0-3.762l1.818-1.944L14.36,12.429z"/>
	<path fill="none" stroke="#454545" stroke-width="1.3333" stroke-linecap="round" stroke-miterlimit="10" d="M14.995,7.987   c1.379-1.378,3.615-1.378,4.994,0c1.379,1.379,1.379,3.614,0,4.993c-1.379,1.38-3.615,1.378-4.994,0l-2.579-2.413L14.995,7.987z"/>
	<path fill="none" stroke="#454545" stroke-width="1.3333" stroke-linecap="round" stroke-miterlimit="10" d="M10.003,7.987   c-1.379-1.379-1.379-3.614,0-4.993c1.379-1.378,3.613-1.378,4.992,0c1.379,1.379,1.379,3.615,0,4.993l-2.412,2.58L10.003,7.987z"/>
	<path fill="none" stroke="#454545" stroke-width="1.3333" stroke-linecap="round" stroke-miterlimit="10" d="M10.003,13.063   c-1.379,1.379-3.614,1.379-4.993,0c-1.378-1.378-1.378-3.614,0-4.992c1.379-1.379,3.614-1.379,4.993,0l2.58,2.413L10.003,13.063z"/>
	<path fill="none" stroke="#454545" stroke-width="1.3333" stroke-linecap="round" stroke-miterlimit="10" d="M5.611,21.382   c1.432,1.432,3.494,1.92,5.552,1.525c0.396-2.059-0.093-4.121-1.525-5.553c-1.432-1.433-3.493-1.922-5.552-1.525   C3.69,17.888,4.181,19.95,5.611,21.382z"/>
	<path fill="none" stroke="#454545" stroke-width="1.3333" stroke-linecap="round" stroke-miterlimit="10" d="M19.388,21.382   c1.432-1.432,1.922-3.494,1.525-5.553c-2.059-0.396-4.121,0.094-5.553,1.525c-1.432,1.431-1.92,3.494-1.525,5.553   C15.894,23.302,17.956,22.813,19.388,21.382z"/>
	
		<line fill="none" stroke="#454545" stroke-width="1.3333" stroke-linecap="round" stroke-miterlimit="10" x1="12.5" y1="17.272" x2="12.5" y2="23.038"/>
</g>
</svg>