<?xml version="1.0" encoding="UTF-8"?>
<!-- Generator: Adobe Illustrator 16.2.1, SVG Export Plug-In . SVG Version: 6.00 Build 0)  -->
<!DOCTYPE svg PUBLIC "-//W3C//DTD SVG 1.0//EN" "http://www.w3.org/TR/2001/REC-SVG-20010904/DTD/svg10.dtd">
<svg version="1.0" id="Layer_1" xmlns="http://www.w3.org/2000/svg" xmlns:xlink="http://www.w3.org/1999/xlink" x="0px" y="0px" width="25px" height="25px" viewBox="0 0 25 25" enable-background="new 0 0 25 25" xml:space="preserve">
<g>
	<path fill="none" stroke="#454545" stroke-width="1.3333" stroke-miterlimit="10" d="M22.062,6.187h-4.205   c0,0-1.608-2.12-2.571-2.12s-4.832,0-5.794,0s-2.572,2.12-2.572,2.12h-3.98c-1.104,0-2,0.896-2,2v10.747c0,1.105,0.896,2,2,2   h19.123c1.104,0,2-0.895,2-2V8.187C24.062,7.083,23.165,6.187,22.062,6.187z"/>
	<circle fill="none" stroke="#454545" stroke-width="1.3333" stroke-miterlimit="10" cx="12.5" cy="13.561" r="4.966"/>
	<circle fill="none" stroke="#454545" stroke-width="1.3333" stroke-miterlimit="10" cx="12.5" cy="13.561" r="1.875"/>
	<circle fill="#454545" cx="4.514" cy="10.354" r="1.338"/>
	<rect x="19.675" y="4.632" fill="#454545" width="1.889" height="1.507"/>
	
		<line fill="none" stroke="#454545" stroke-width="1.3333" stroke-linecap="round" stroke-miterlimit="10" x1="2.837" y1="4.632" x2="5.518" y2="4.632"/>
</g>
</svg>