<?xml version="1.0" encoding="UTF-8"?>
<!-- Generator: Adobe Illustrator 16.2.1, SVG Export Plug-In . SVG Version: 6.00 Build 0)  -->
<!DOCTYPE svg PUBLIC "-//W3C//DTD SVG 1.0//EN" "http://www.w3.org/TR/2001/REC-SVG-20010904/DTD/svg10.dtd">
<svg version="1.0" id="Layer_1" xmlns="http://www.w3.org/2000/svg" xmlns:xlink="http://www.w3.org/1999/xlink" x="0px" y="0px" width="25px" height="25px" viewBox="0 0 25 25" enable-background="new 0 0 25 25" xml:space="preserve">
<g>
	<line fill="none" stroke="#454545" stroke-width="1.3333" stroke-miterlimit="10" x1="8.501" y1="0.833" x2="8.501" y2="13.146"/>
	
		<line fill="none" stroke="#454545" stroke-width="1.3333" stroke-miterlimit="10" x1="16.823" y1="13.146" x2="16.823" y2="0.833"/>
	<path fill="none" stroke="#454545" stroke-width="1.3333" stroke-miterlimit="10" d="M19.331,15.866H5.64   c-1.188,0,1.674-2.722,2.862-2.722h8.322C18.011,13.146,20.52,15.866,19.331,15.866z"/>
	<path fill="none" stroke="#454545" stroke-width="1.3333" stroke-miterlimit="10" d="M8.501,2.58   c1.247-0.234,2.661-0.366,4.16-0.366c1.5,0,2.914,0.132,4.162,0.366"/>
	<line fill="none" stroke="#454545" stroke-width="1.3333" stroke-miterlimit="10" x1="8.501" y1="6.583" x2="16.823" y2="6.583"/>
	<line fill="none" stroke="#454545" stroke-width="1.3333" stroke-miterlimit="10" x1="8.501" y1="9.966" x2="16.823" y2="9.966"/>
	<line fill="none" stroke="#454545" stroke-width="1.3333" stroke-miterlimit="10" x1="10.667" y1="2.397" x2="10.667" y2="6.583"/>
	<line fill="none" stroke="#454545" stroke-width="1.3333" stroke-miterlimit="10" x1="12.662" y1="2.397" x2="12.662" y2="6.583"/>
	<line fill="none" stroke="#454545" stroke-width="1.3333" stroke-miterlimit="10" x1="14.792" y1="2.397" x2="14.792" y2="6.583"/>
	<line fill="none" stroke="#454545" stroke-width="1.3333" stroke-miterlimit="10" x1="6.074" y1="15.866" x2="6.074" y2="24.167"/>
	
		<line fill="none" stroke="#454545" stroke-width="1.3333" stroke-miterlimit="10" x1="18.927" y1="15.866" x2="18.927" y2="24.167"/>
	
		<line fill="none" stroke="#454545" stroke-width="1.3333" stroke-miterlimit="10" x1="6.074" y1="17.812" x2="18.927" y2="17.812"/>
	<line fill="none" stroke="#454545" stroke-width="1.3333" stroke-miterlimit="10" x1="6.074" y1="22.55" x2="18.927" y2="22.55"/>
</g>
</svg>