<?xml version="1.0" encoding="UTF-8"?>
<!-- Generator: Adobe Illustrator 16.2.1, SVG Export Plug-In . SVG Version: 6.00 Build 0)  -->
<!DOCTYPE svg PUBLIC "-//W3C//DTD SVG 1.0//EN" "http://www.w3.org/TR/2001/REC-SVG-20010904/DTD/svg10.dtd">
<svg version="1.0" id="Layer_1" xmlns="http://www.w3.org/2000/svg" xmlns:xlink="http://www.w3.org/1999/xlink" x="0px" y="0px" width="25px" height="25px" viewBox="0 0 25 25" enable-background="new 0 0 25 25" xml:space="preserve">
<g>
	
		<path fill="none" stroke="#454545" stroke-width="1.3333" stroke-linecap="round" stroke-linejoin="round" stroke-miterlimit="10" d="   M22.996,15.654c0,3.154-20.996,3.154-20.996,0l-0.368-4.079c0-1.22,0.991-2.212,2.212-2.212h17.312   c1.221,0,2.211,0.992,2.211,2.212L22.996,15.654z"/>
	
		<path fill="none" stroke="#454545" stroke-width="1.3333" stroke-linecap="round" stroke-linejoin="round" stroke-miterlimit="10" d="   M4.212,9.363c0,0,0.99-5.363,2.212-5.363h12.148c1.225,0,2.213,5.363,2.213,5.363"/>
	
		<path fill="none" stroke="#454545" stroke-width="1.3333" stroke-linecap="round" stroke-linejoin="round" stroke-miterlimit="10" d="   M16.828,14.668c0,0.645-0.521,1.166-1.164,1.166H9.377c-0.643,0-1.165-0.521-1.165-1.166l0,0c0-0.643,0.522-1.164,1.165-1.164   h6.287C16.307,13.504,16.828,14.025,16.828,14.668L16.828,14.668z"/>
	
		<circle fill="none" stroke="#454545" stroke-width="1.3333" stroke-linecap="round" stroke-linejoin="round" stroke-miterlimit="10" cx="5.116" cy="12.596" r="1.722"/>
	
		<circle fill="none" stroke="#454545" stroke-width="1.3333" stroke-linecap="round" stroke-linejoin="round" stroke-miterlimit="10" cx="19.926" cy="12.596" r="1.722"/>
	
		<polyline fill="none" stroke="#454545" stroke-width="1.3333" stroke-linecap="round" stroke-linejoin="round" stroke-miterlimit="10" points="   4.212,17.219 4.212,21 7.379,21 7.379,17.904  "/>
	
		<polyline fill="none" stroke="#454545" stroke-width="1.3333" stroke-linecap="round" stroke-linejoin="round" stroke-miterlimit="10" points="   20.809,17.219 20.809,21 17.641,21 17.641,17.904  "/>
</g>
</svg>