<?xml version="1.0" encoding="UTF-8"?>
<!-- Generator: Adobe Illustrator 16.2.1, SVG Export Plug-In . SVG Version: 6.00 Build 0)  -->
<!DOCTYPE svg PUBLIC "-//W3C//DTD SVG 1.0//EN" "http://www.w3.org/TR/2001/REC-SVG-20010904/DTD/svg10.dtd">
<svg version="1.0" id="Layer_1" xmlns="http://www.w3.org/2000/svg" xmlns:xlink="http://www.w3.org/1999/xlink" x="0px" y="0px" width="25px" height="25px" viewBox="0 0 25 25" enable-background="new 0 0 25 25" xml:space="preserve">
<g>
	<polyline fill="none" stroke="#454545" stroke-width="1.3333" stroke-linecap="round" stroke-miterlimit="10" points="   1.995,10.467 10.167,7.993 14.834,7.993 23.006,10.467  "/>
	<polyline fill="none" stroke="#454545" stroke-width="1.3333" stroke-linecap="round" stroke-miterlimit="10" points="7.816,7.312    7.816,5.492 6.553,5.492 12.501,3.127 18.447,5.492 17.242,5.492 17.242,7.312  "/>
	<g>
		
			<line fill="none" stroke="#454545" stroke-width="1.3333" stroke-linecap="round" stroke-miterlimit="10" x1="4.167" y1="10.467" x2="4.167" y2="19.326"/>
		
			<line fill="none" stroke="#454545" stroke-width="1.3333" stroke-linecap="round" stroke-miterlimit="10" x1="6.501" y1="9.103" x2="6.501" y2="19.326"/>
		
			<line fill="none" stroke="#454545" stroke-width="1.3333" stroke-linecap="round" stroke-miterlimit="10" x1="10.167" y1="7.993" x2="10.167" y2="19.326"/>
		
			<line fill="none" stroke="#454545" stroke-width="1.3333" stroke-linecap="round" stroke-miterlimit="10" x1="14.834" y1="7.993" x2="14.834" y2="19.326"/>
		
			<line fill="none" stroke="#454545" stroke-width="1.3333" stroke-linecap="round" stroke-miterlimit="10" x1="18.168" y1="9.229" x2="18.168" y2="19.326"/>
		
			<line fill="none" stroke="#454545" stroke-width="1.3333" stroke-linecap="round" stroke-miterlimit="10" x1="20.834" y1="10.467" x2="20.834" y2="19.326"/>
	</g>
	
		<line fill="none" stroke="#454545" stroke-width="1.3333" stroke-linecap="round" stroke-miterlimit="10" x1="2.895" y1="20.508" x2="22.105" y2="20.508"/>
	
		<line fill="none" stroke="#454545" stroke-width="1.3333" stroke-linecap="round" stroke-miterlimit="10" x1="1.895" y1="21.873" x2="23.105" y2="21.873"/>
	
		<line fill="none" stroke="#454545" stroke-width="1.3333" stroke-linecap="round" stroke-miterlimit="10" x1="10.167" y1="15.172" x2="4.167" y2="15.172"/>
	
		<line fill="none" stroke="#454545" stroke-width="1.3333" stroke-linecap="round" stroke-miterlimit="10" x1="14.834" y1="15.172" x2="20.834" y2="15.172"/>
	
		<line fill="none" stroke="#454545" stroke-width="1.3333" stroke-linecap="round" stroke-miterlimit="10" x1="10.167" y1="19.326" x2="4.167" y2="19.326"/>
	
		<line fill="none" stroke="#454545" stroke-width="1.3333" stroke-linecap="round" stroke-miterlimit="10" x1="14.834" y1="19.326" x2="20.834" y2="19.326"/>
</g>
</svg>