<?xml version="1.0" encoding="UTF-8"?>
<!-- Generator: Adobe Illustrator 16.2.1, SVG Export Plug-In . SVG Version: 6.00 Build 0)  -->
<!DOCTYPE svg PUBLIC "-//W3C//DTD SVG 1.0//EN" "http://www.w3.org/TR/2001/REC-SVG-20010904/DTD/svg10.dtd">
<svg version="1.0" id="Layer_1" xmlns="http://www.w3.org/2000/svg" xmlns:xlink="http://www.w3.org/1999/xlink" x="0px" y="0px" width="25px" height="25px" viewBox="0 0 25 25" enable-background="new 0 0 25 25" xml:space="preserve">
<g>
	<path fill="none" stroke="#454545" stroke-width="1.3333" stroke-miterlimit="10" d="M13.08,18.812h7.408l0,0   c0-2.397-1.943-4.344-4.344-4.344h-0.365c2.123-0.945,3.604-3.07,3.604-5.543c0-3.352-2.717-6.07-6.07-6.07   c-3.352,0-6.068,2.719-6.068,6.07c0,0.397,0.038,0.786,0.11,1.162"/>
	<g>
		
			<rect x="4.512" y="10.088" fill="none" stroke="#454545" stroke-width="1.3333" stroke-miterlimit="10" width="8.568" height="12.057"/>
		
			<line fill="none" stroke="#454545" stroke-width="1.3333" stroke-miterlimit="10" x1="6.159" y1="12.927" x2="11.434" y2="12.927"/>
		<line fill="none" stroke="#454545" stroke-width="1.3333" stroke-miterlimit="10" x1="6.159" y1="15.26" x2="11.434" y2="15.26"/>
		
			<line fill="none" stroke="#454545" stroke-width="1.3333" stroke-miterlimit="10" x1="6.159" y1="17.594" x2="11.434" y2="17.594"/>
		
			<line fill="none" stroke="#454545" stroke-width="1.3333" stroke-miterlimit="10" x1="6.159" y1="19.928" x2="11.434" y2="19.928"/>
		<rect x="5.492" y="9.046" fill="#454545" width="0.979" height="1.812"/>
		<rect x="11.11" y="9.046" fill="#454545" width="0.979" height="1.812"/>
	</g>
</g>
</svg>